<svg xmlns="http://www.w3.org/2000/svg" viewBox="0 0 392.62 348.52"><defs><style>.cls-1{fill:#e3d7d5;}.cls-2{fill:#4791db;}.cls-3{fill:#fdbb92;}.cls-4{fill:#fd967d;}.cls-5{fill:#002029;}.cls-6{fill:#173953;}.cls-7{fill:#ffd06a;}.cls-8{fill:#fff;}.cls-9{fill:#2a5b74;}.cls-10{fill:#354adb;}.cls-11{fill:#efeaea;}.cls-12{opacity:0.3;}.cls-13{fill:#5a95ff;}.cls-14{fill:#3263ff;}.cls-15{fill:#fb7c57;}</style></defs><title>students_results</title><g id="OBJECTS"><ellipse class="cls-1" cx="52.98" cy="341.6" rx="52.98" ry="6.57"/><path class="cls-2" d="M443.66,159.77a99.32,99.32,0,0,1-12.84,14.14A87.89,87.89,0,0,1,415,185.29a7.23,7.23,0,0,1-7.27-.1l-.82-.5-31-18.64a10.32,10.32,0,0,1,10.64-17.69,12.07,12.07,0,0,1,1.08.74l24.94,19.7a73.68,73.68,0,0,0,9.55-5.71,86.1,86.1,0,0,0,12.55-11l0,0a5.92,5.92,0,0,1,9,7.65Z" transform="translate(-304.07 -93.58)"/><path class="cls-3" d="M448.19,154.47h0l-.24.06s-.1.18-.28.47c-.89,1.41-3.78,5.4-7.21,4.06-.27-.1-.53-.22-.78-.34s-.53-.29-.78-.45a11.45,11.45,0,0,1-4.21-5s-.82-7,2-8.7c1.64-1,2.6-.7,3.11-.3a1.72,1.72,0,0,1,.51.64l.42-.52c1.5-1.87,6.6-8.13,7.86-8.27,1.48-.15-3.75,8.74-3.75,8.74s1.24-.38,3.8,2.18S452.14,153.43,448.19,154.47Z" transform="translate(-304.07 -93.58)"/><path class="cls-4" d="M444,150.82a.37.37,0,0,1-.36-.31.36.36,0,0,1,.3-.41s1.05-.23,2.09-2a.37.37,0,0,1,.63.37c-1.25,2.14-2.55,2.37-2.61,2.38Z" transform="translate(-304.07 -93.58)"/><path class="cls-4" d="M445.55,153.21a.38.38,0,0,1-.36-.27.37.37,0,0,1,.26-.45,4.27,4.27,0,0,0,2.53-2.18.37.37,0,0,1,.48-.19.37.37,0,0,1,.19.48,4.94,4.94,0,0,1-3,2.59Z" transform="translate(-304.07 -93.58)"/><path class="cls-4" d="M442.27,148.59a2,2,0,0,1-1.56.51,15.77,15.77,0,0,1-4.55-1,.38.38,0,0,1-.22-.47.37.37,0,0,1,.47-.22c1.83.68,4.78,1.39,5.29.75.18-.22,0-.74-.41-1.44l-1.48-2.42a1.72,1.72,0,0,1,.51.64l.42-.52,1.17,1.92C442.14,146.68,442.88,147.84,442.27,148.59Z" transform="translate(-304.07 -93.58)"/><path class="cls-4" d="M448.18,154.47l-.24.06s-.1.18-.28.47c-6-3.51-4.4-8.61-4.38-8.66a.36.36,0,0,1,.46-.23.37.37,0,0,1,.23.46C443.9,146.77,442.51,151.27,448.18,154.47Z" transform="translate(-304.07 -93.58)"/><polygon class="cls-5" points="56.78 199 48.8 319.52 61.9 318.71 90.21 168.38 59.38 169.42 56.78 199"/><path class="cls-3" d="M353.79,412.25l-.93,11.46a15.8,15.8,0,0,0,10,1.22l1.9-13.55Z" transform="translate(-304.07 -93.58)"/><path class="cls-6" d="M367.68,409.85a11.36,11.36,0,0,1-.52,7l-15.71-.74a18.22,18.22,0,0,1-.13-6.9Z" transform="translate(-304.07 -93.58)"/><path class="cls-7" d="M390.17,436.84c-.85,1.81-38.18-.13-38.18-.13s-1.19-11.09,0-14.5,6.61.42,10.35-.44c0,0,2.23-3.09,4.05-3,.66,0,3,1.55,5.95,3.49l1.47,1c.35.24.71.47,1.07.7l1.77,1.16.67.43h0c.54.36,1.09.7,1.63,1,3.27,2,6.37,3.76,8.16,4.08C391.9,431.49,391,435,390.17,436.84Z" transform="translate(-304.07 -93.58)"/><path class="cls-8" d="M376.63,425.09a3.4,3.4,0,0,0-2,.4,9,9,0,0,0-2.89,3.15.65.65,0,0,1-.38.31.66.66,0,0,1-.53-.05.67.67,0,0,1-.26-.91A10.26,10.26,0,0,1,374,424.3a5.1,5.1,0,0,1,.89-.37C375.84,424,376.66,424.24,376.63,425.09Z" transform="translate(-304.07 -93.58)"/><path class="cls-8" d="M373.79,423.23a3.74,3.74,0,0,0-1.23.4,9,9,0,0,0-2.88,3.15.7.7,0,0,1-.39.31.63.63,0,0,1-.52,0,.66.66,0,0,1-.27-.91,10.36,10.36,0,0,1,3.44-3.69l.38-.17C373,422.32,373.65,422.28,373.79,423.23Z" transform="translate(-304.07 -93.58)"/><path class="cls-8" d="M378.94,426.56a3.48,3.48,0,0,0-1.62.42,9.26,9.26,0,0,0-2.89,3.15.63.63,0,0,1-.38.32.68.68,0,0,1-.79-1,10.26,10.26,0,0,1,3.44-3.68,6.37,6.37,0,0,1,.6-.28h0C378.37,425.42,379,425.69,378.94,426.56Z" transform="translate(-304.07 -93.58)"/><path class="cls-6" d="M323.28,413.56l11.66.53,29.88-70.61L371,267l-27.36-4.16-1.52-.23-4.57-.7c2,16.34,4.85,74.12,4.85,74.12a255.24,255.24,0,0,0-9,26.14C329.34,376.42,323.28,413.56,323.28,413.56Z" transform="translate(-304.07 -93.58)"/><path class="cls-5" d="M325.88,412.79H326a.75.75,0,0,0,.74-.61c.07-.39,7.12-39.14,11.31-51.44,2.75-8.1,9.67-24.29,9.74-24.45a.66.66,0,0,0,.06-.34l-4.27-73.08-1.52-.23,4.29,73.22c-.74,1.73-7.1,16.68-9.72,24.39-4.23,12.41-11.3,51.27-11.37,51.66A.75.75,0,0,0,325.88,412.79Z" transform="translate(-304.07 -93.58)"/><path class="cls-3" d="M324.94,412.05l-3.38,11.66a15.78,15.78,0,0,0,10,1.22l3.37-13.67Z" transform="translate(-304.07 -93.58)"/><path class="cls-9" d="M338.13,410.8c.58,2.8.41,4.87-1.72,6.58l-16.4-1a11.2,11.2,0,0,1,.57-6.68Z" transform="translate(-304.07 -93.58)"/><path class="cls-7" d="M358.15,436.84c-.85,1.81-38.19-.13-38.19-.13s-1.18-11.09,0-14.5,6.61.42,10.34-.44c0,0,2.24-3.09,4-3,.67,0,3,1.55,6,3.49l1.48,1,1.06.7,1.77,1.16.68.43h0c.54.36,1.09.7,1.63,1,3.28,2,6.37,3.76,8.17,4.08C359.88,431.49,359,435,358.15,436.84Z" transform="translate(-304.07 -93.58)"/><path class="cls-8" d="M344.6,425.09a3.41,3.41,0,0,0-2,.4,9.2,9.2,0,0,0-2.89,3.15.65.65,0,0,1-.38.31.66.66,0,0,1-.53-.05.67.67,0,0,1-.26-.91,10.26,10.26,0,0,1,3.44-3.69,5.1,5.1,0,0,1,.89-.37C343.81,424,344.63,424.24,344.6,425.09Z" transform="translate(-304.07 -93.58)"/><path class="cls-8" d="M341.77,423.23a3.71,3.71,0,0,0-1.24.4,9.1,9.1,0,0,0-2.88,3.15.7.7,0,0,1-.39.31.64.64,0,0,1-.52,0,.66.66,0,0,1-.26-.91,10.2,10.2,0,0,1,3.43-3.69l.38-.17C340.92,422.32,341.62,422.28,341.77,423.23Z" transform="translate(-304.07 -93.58)"/><path class="cls-8" d="M346.91,426.56a3.48,3.48,0,0,0-1.62.42,9.08,9.08,0,0,0-2.88,3.15.68.68,0,0,1-.39.32.68.68,0,0,1-.79-1,10.36,10.36,0,0,1,3.44-3.68,5.51,5.51,0,0,1,.61-.28h0C346.34,425.42,347,425.69,346.91,426.56Z" transform="translate(-304.07 -93.58)"/><path class="cls-2" d="M392.22,267c-5.8,3-44.12,2.46-52.7-2.44-2.65-1.51-3.87-11.27-4.24-24.35,0-.59,0-1.19,0-1.79-.06-2.4-.08-4.9-.08-7.47v-.78c0-1.14,0-2.29,0-3.45,0-.94,0-1.9,0-2.86,0-1.17,0-2.36.06-3.54,0-.22,0-.44,0-.66,0-.55,0-1.1,0-1.65l0-1.41,0-1.23c0-.39,0-.77,0-1.16.06-2.07.13-4.15.2-6.22,0-.61.05-1.21.07-1.82.13-3.15.27-6.27.42-9.33,0-.26,0-.52,0-.78l.12-2.19c0-.31,0-.63.05-.94s0-.68.05-1,.05-.87.08-1.3,0-.68.05-1l.06-.94c.05-.8.09-1.58.14-2.36,0-.26,0-.52.05-.77.85-13.59,1.82-24.36,2.36-27.48,1.74-10.17,26.28-20.28,26.28-20.28l11.13,3.61c.65.21,1.28.45,1.9.72.39.17.78.35,1.15.54a21.27,21.27,0,0,1,11.55,21.19c-.38,3.6-.53,7.57-.55,11.68,0,.68,0,1.36,0,2.05,0,2,0,3.95.09,5.92l.06,2v.08c0,.34,0,.68,0,1l0,.94,0,1c0,1.08.09,2.15.13,3.21,0,.32,0,.64,0,1,0,.87.07,1.74.1,2.58,0,.33,0,.65.05,1,.06,1.49.12,2.94.16,4.34,0,.41,0,.82,0,1.22l0,1.11q0,.58,0,1.14c.05,2,.06,3.82,0,5.44,0,.17,0,.33,0,.5,0,.51,0,1,0,1.57,0,2.13.05,4.48.19,7l.06,1c0,.31,0,.61.05.92s.05.66.07,1c.06.79.11,1.6.18,2.42,0,.4.07.8.1,1.21a.57.57,0,0,0,0,.13v.06c0,.3.05.61.08.92,0,0,0,.08,0,.12q.08.85.15,1.74c0,.26.05.52.07.78.07.8.15,1.6.22,2.41l.42,4.35C394.42,250.69,395.81,265.16,392.22,267Z" transform="translate(-304.07 -93.58)"/><path class="cls-10" d="M380.11,248.38a43.13,43.13,0,0,1-19.9-5.31,50.7,50.7,0,0,1-10.65-7.42.62.62,0,0,1,.86-.9A51.09,51.09,0,0,0,360.83,242c5.83,3.08,14.89,6.4,24.91,4.66a.62.62,0,0,1,.72.51.63.63,0,0,1-.51.73A34.61,34.61,0,0,1,380.11,248.38Z" transform="translate(-304.07 -93.58)"/><path class="cls-10" d="M368.83,164.79a.63.63,0,0,1-.16-1.23c.09,0,9.64-2.73,14.38-11.68a.62.62,0,0,1,1.1.58c-5,9.45-14.74,12.2-15.15,12.31Z" transform="translate(-304.07 -93.58)"/><path class="cls-10" d="M353.68,206.89a.64.64,0,0,1-.58-.38c-6.07-14,2.26-39.68,2.62-40.77a.62.62,0,0,1,.79-.39.62.62,0,0,1,.39.78c-.08.27-8.53,26.34-2.65,39.89a.63.63,0,0,1-.32.82A.74.74,0,0,1,353.68,206.89Z" transform="translate(-304.07 -93.58)"/><path class="cls-10" d="M355,171.2a.62.62,0,0,1-.34-1.15l4.67-3a.63.63,0,1,1,.68,1.05l-4.67,3A.61.61,0,0,1,355,171.2Z" transform="translate(-304.07 -93.58)"/><path class="cls-10" d="M335.31,218.05c1.7,3.37,3.47,6.35,4.81,7.36.3.22.92.68,4.86,1,3.68.34,10.23.59,22.1.49,7.49-.06,19.9-.41,25-.56,0,0,0-.08,0-.12,0-.31-.05-.62-.08-.92-18.81.56-49,.74-51.18-.9-1.4-1.05-3.51-4.89-5.48-9Z" transform="translate(-304.07 -93.58)"/><path class="cls-2" d="M339.15,155.55l-.25.6-.2.5-.38,1c-.25.64-.48,1.27-.71,1.91-.45,1.26-.87,2.52-1.27,3.78-.8,2.53-1.51,5.07-2.13,7.65a101,101,0,0,0-2.55,15.87,73.28,73.28,0,0,0,.56,16.68,56.11,56.11,0,0,0,2,8.49c.44,1.41,1,2.81,1.53,4.19s1.23,2.75,1.93,4.09h0l.48.83a8.36,8.36,0,0,0,7.26,4.19c4.79,0,9.54,0,14.3-.09s9.53-.11,14.29-.2c9.53-.17,22.76-2.08,32.33-2.51,1.44-.22,1.67-1,1.53-4.06a5.48,5.48,0,0,0-5-5.22h0c-9.35-.9-18.72-2-28.09-3.16-4.69-.58-9.37-1.19-14.05-1.8s-9.38-1.25-14-1.9l7.73,5h0A34,34,0,0,1,351,200.58a53.67,53.67,0,0,1-.39-12.34,81.18,81.18,0,0,1,2.07-12.83c.51-2.14,1.11-4.27,1.77-6.36.33-1.05.68-2.09,1.05-3.11.18-.51.37-1,.56-1.51l.28-.72.24-.58.12-.3a9.5,9.5,0,0,0-17.55-7.28Z" transform="translate(-304.07 -93.58)"/><path class="cls-10" d="M345.3,211.22a.61.61,0,0,0,.41-.16c.05,0,5.45-4.73,10.63-3.7a.63.63,0,0,0,.74-.49.62.62,0,0,0-.49-.73c-5.8-1.15-11.47,3.78-11.71,4a.62.62,0,0,0-.05.88A.61.61,0,0,0,345.3,211.22Z" transform="translate(-304.07 -93.58)"/><path class="cls-10" d="M351.48,207.76a.62.62,0,0,0,.51-.26.62.62,0,0,0-.14-.87c-2.08-1.52-6.08-1.84-6.25-1.85a.62.62,0,0,0-.67.57.63.63,0,0,0,.58.67s3.81.31,5.61,1.62A.62.62,0,0,0,351.48,207.76Z" transform="translate(-304.07 -93.58)"/><path class="cls-5" d="M392.2,114.34s3.81-.24,5.77-7.09c2.32-8.07-6.58-1.9-13.31-2.7s-16.65-.19-20,5.48-1,12-1,12Z" transform="translate(-304.07 -93.58)"/><path class="cls-3" d="M366.29,141.27s-1.81-1.68-2.66-2.58c2-2.47,5.86-8,6.28-13.51l13.9,10.14s-.36.66-1,1.73l-.1.18a.05.05,0,0,0,0,0c-.45.75-1,1.68-1.66,2.71l-.75,1.16c-.23.35-.47.72-.72,1.08a54.28,54.28,0,0,1-4.11,5.38C372.34,146.23,366.29,141.27,366.29,141.27Z" transform="translate(-304.07 -93.58)"/><path class="cls-4" d="M382.83,137.05l-.1.18a.05.05,0,0,0,0,0c-.45.75-1,1.68-1.66,2.71l-.75,1.16c-.23.35-.47.72-.72,1.08-1.42-3-1.61-7.73-1.65-7.83Z" transform="translate(-304.07 -93.58)"/><path class="cls-3" d="M365.52,125.24a44.76,44.76,0,0,0,5.32,4.86c6.55,5.23,15.49,10.58,18.07,11,1.91.33,3.29-.75,4.16-4.07.13-.52.26-1,.38-1.61L394,132c.06-.39.11-.8.16-1.21.95-.13,3-.49,2.69-1.08-.36-.74-2.23-4.37-2.3-4.52h0a35.58,35.58,0,0,0-.54-7.35,7.12,7.12,0,0,0-.79-2.12,7.2,7.2,0,0,0-3.57-3.09c-4.61-1.85-13.3-5-18.06-4.23C364.94,109.44,360.09,119.13,365.52,125.24Z" transform="translate(-304.07 -93.58)"/><path class="cls-4" d="M384.54,128.2c0,.82,1.22,1.55,2.82,1.63s2.93-.52,3-1.34-1.22-1.54-2.82-1.62S384.58,127.38,384.54,128.2Z" transform="translate(-304.07 -93.58)"/><path class="cls-5" d="M394.2,130.82s-4.57-2-7.63-.46-3.58-1.44-3-3.27,0-5.89,0-5.89l-1.3.08s.35,5.87-1.68,7.3-1.15,9.31,1.81,11.46,7.09,4,9.6,2.14S394.2,130.82,394.2,130.82Z" transform="translate(-304.07 -93.58)"/><path class="cls-9" d="M392,134.69h.21a.37.37,0,0,0,.35-.37.35.35,0,0,0-.37-.35,2.79,2.79,0,0,1-2.39-1.57.36.36,0,0,0-.48-.17.36.36,0,0,0-.17.48A3.53,3.53,0,0,0,392,134.69Z" transform="translate(-304.07 -93.58)"/><path class="cls-5" d="M392.57,124c0,.67-.22,1.23-.59,1.25s-.7-.49-.74-1.16.22-1.23.59-1.25S392.53,123.31,392.57,124Z" transform="translate(-304.07 -93.58)"/><path class="cls-5" d="M388.93,122.68a.73.73,0,0,1-.25-.08.59.59,0,0,1-.2-.8A4,4,0,0,1,393.1,120a.58.58,0,0,1-.36,1.1,2.89,2.89,0,0,0-3.27,1.32A.59.59,0,0,1,388.93,122.68Z" transform="translate(-304.07 -93.58)"/><path class="cls-4" d="M379.72,126.23a.4.4,0,0,1-.36-.36,6.76,6.76,0,0,0-2.23-4.27.4.4,0,0,1-.06-.56.39.39,0,0,1,.56-.07,7.37,7.37,0,0,1,2.53,4.81.41.41,0,0,1-.36.45Z" transform="translate(-304.07 -93.58)"/><path class="cls-4" d="M376.78,124.05a.39.39,0,0,1-.33-.24.4.4,0,0,1,.21-.53,4.53,4.53,0,0,1,2.44-.33.4.4,0,0,1,.29.49.39.39,0,0,1-.49.29A3.58,3.58,0,0,0,377,124,.35.35,0,0,1,376.78,124.05Z" transform="translate(-304.07 -93.58)"/><path class="cls-5" d="M371.62,108.42c4.76-.73,13.45,2.38,18.06,4.23a7.26,7.26,0,0,1,2.52,1.69,23.66,23.66,0,0,1-4.28-1c-1.07,1.45-2.53,2.67-3.94,2.67-.08,1.78-.35,3.41-.44,5.23a6.35,6.35,0,0,1-1.3.08s-2.86-5.13-7.05-2.17c-2.39,1.68-1.82,4.87-.09,7.17-1,2.52-2.77,3.91-4.26,3.82a44.76,44.76,0,0,1-5.32-4.86C360.09,119.13,364.94,109.44,371.62,108.42Z" transform="translate(-304.07 -93.58)"/><path class="cls-8" d="M392.79,118.51c-1.29-.14-2.56,2-2.88,4.91s.44,5.27,1.74,5.42,2.48-1.88,2.85-4.64l0-.27a2,2,0,0,0,0-.23C394.81,120.91,394.05,118.65,392.79,118.51Zm-1.09,9.83c-.86-.09-1.6-2.12-1.3-4.87s1.48-4.56,2.34-4.47,1.59,2,1.31,4.76c0,0,0,.07,0,.12s0,.32-.07.48C393.59,126.87,392.53,128.44,391.7,128.34Z" transform="translate(-304.07 -93.58)"/><path class="cls-8" d="M395,124.42a.24.24,0,0,1-.34-.06.48.48,0,0,0-.16-.16l-.08,0a.53.53,0,0,0-.3.12.21.21,0,0,1-.15.07c0-.16,0-.32.07-.48s0-.09,0-.12a.71.71,0,0,1,.42-.08l.08,0a.82.82,0,0,1,.52.38A.24.24,0,0,1,395,124.42Z" transform="translate(-304.07 -93.58)"/><path class="cls-8" d="M390.25,122.69l-6.65-.93c0,.17,0,.34.08.51l6.51.91h0a.25.25,0,1,0,.06-.49Z" transform="translate(-304.07 -93.58)"/><rect class="cls-6" x="84.45" y="118.3" width="51.68" height="4.61"/><polygon class="cls-6" points="149.2 77 132.05 121.34 136.13 122.91 153.82 77 149.2 77"/><path class="cls-3" d="M418.88,218.08a11.8,11.8,0,0,1-1.78,1.3c-2.87,1.76-8,4-13.55,2.73a15.57,15.57,0,0,1-8.6-5.6s.59-3.52,2.74-4.3c1.83-.67.52,2.22,1,3.13s7.14,1.25,11.07.85a45.43,45.43,0,0,1,6.3-.16l.81,0,1.32.09a1,1,0,0,1,.58.21,1.09,1.09,0,0,1,.07,1.72Z" transform="translate(-304.07 -93.58)"/><path class="cls-4" d="M419.15,216.76a14.17,14.17,0,0,1-5.88,3.28h-.07a.26.26,0,0,1-.08-.51,13.61,13.61,0,0,0,5.69-3.18A1.1,1.1,0,0,1,419.15,216.76Z" transform="translate(-304.07 -93.58)"/><path class="cls-4" d="M416.91,216.06a15.22,15.22,0,0,1-5.32,2.77h-.08a.26.26,0,0,1-.25-.18.26.26,0,0,1,.17-.32A15.51,15.51,0,0,0,416.1,216Z" transform="translate(-304.07 -93.58)"/><path class="cls-11" d="M574.39,98.91V309.14a7.17,7.17,0,0,1-7.16,7.16H473.34a7.17,7.17,0,0,1-7.16-7.16V98.91a5.34,5.34,0,0,1,5.34-5.33h97.53A5.34,5.34,0,0,1,574.39,98.91Z" transform="translate(-304.07 -93.58)"/><g class="cls-12"><path class="cls-13" d="M558.19,219.7H486.1a2.37,2.37,0,0,1-2.37-2.38h0A2.37,2.37,0,0,1,486.1,215h72.09a2.37,2.37,0,0,1,2.37,2.37h0A2.37,2.37,0,0,1,558.19,219.7Z" transform="translate(-304.07 -93.58)"/></g><g class="cls-12"><path class="cls-13" d="M558.19,234.78H486.1a2.38,2.38,0,0,1-2.37-2.38h0A2.38,2.38,0,0,1,486.1,230h72.09a2.38,2.38,0,0,1,2.37,2.38h0A2.38,2.38,0,0,1,558.19,234.78Z" transform="translate(-304.07 -93.58)"/></g><g class="cls-12"><path class="cls-13" d="M558.19,249.85H486.1a2.37,2.37,0,0,1-2.37-2.37h0a2.37,2.37,0,0,1,2.37-2.38h72.09a2.37,2.37,0,0,1,2.37,2.38h0A2.37,2.37,0,0,1,558.19,249.85Z" transform="translate(-304.07 -93.58)"/></g><g class="cls-12"><path class="cls-13" d="M558.19,264.93H486.1a2.37,2.37,0,0,1-2.37-2.38h0a2.37,2.37,0,0,1,2.37-2.37h72.09a2.37,2.37,0,0,1,2.37,2.37h0A2.37,2.37,0,0,1,558.19,264.93Z" transform="translate(-304.07 -93.58)"/></g><g class="cls-12"><path class="cls-13" d="M558.19,280H486.1a2.38,2.38,0,0,1-2.37-2.38h0a2.38,2.38,0,0,1,2.37-2.38h72.09a2.38,2.38,0,0,1,2.37,2.38h0A2.38,2.38,0,0,1,558.19,280Z" transform="translate(-304.07 -93.58)"/></g><g class="cls-12"><path class="cls-13" d="M558.19,295.09H486.1a2.38,2.38,0,0,1-2.37-2.38h0a2.38,2.38,0,0,1,2.37-2.38h72.09a2.38,2.38,0,0,1,2.37,2.38h0A2.38,2.38,0,0,1,558.19,295.09Z" transform="translate(-304.07 -93.58)"/></g><path class="cls-13" d="M574.39,98.91v14.8H466.18V98.91a5.34,5.34,0,0,1,5.34-5.33h97.53A5.34,5.34,0,0,1,574.39,98.91Z" transform="translate(-304.07 -93.58)"/><path class="cls-14" d="M548.19,102.67a3.52,3.52,0,1,1-3.52-3.51A3.52,3.52,0,0,1,548.19,102.67Z" transform="translate(-304.07 -93.58)"/><path class="cls-10" d="M559.59,102.67a3.52,3.52,0,1,1-3.52-3.51A3.52,3.52,0,0,1,559.59,102.67Z" transform="translate(-304.07 -93.58)"/><path class="cls-5" d="M570.51,102.67A3.52,3.52,0,1,1,567,99.16,3.52,3.52,0,0,1,570.51,102.67Z" transform="translate(-304.07 -93.58)"/><path class="cls-10" d="M550.14,142.35A35.57,35.57,0,0,0,523,129.74h-1.08c-.59,0-1.19.05-1.78.1l-.35,0-.52.05-.38,0-.48.06-.45.06-.54.08-.37.06-.34.06-.31.06-.43.08-.52.11-.48.11q-.78.18-1.56.39l-.36.11c-.47.14-.94.28-1.41.44s-.92.32-1.38.5-.91.35-1.36.55l-.44.2-.44.2c-.15.06-.3.14-.44.21l-.39.18-.08.05c-.28.13-.56.28-.83.42l-.33.18c-.18.09-.35.19-.52.29l-.42.24-.42.25-.84.53c-.79.51-1.57,1-2.32,1.62l0,0c-.64.49-1.26,1-1.86,1.52l-.37.32-.7.65-.35.34-.34.33-.67.69-.33.35-.64.72-.32.36c-.1.13-.2.25-.31.37l-.34.42-.49.62a35.66,35.66,0,0,0,27.09,57.33l1.22,0a35.65,35.65,0,0,0,27.18-58.73Zm-25.76,48.26c-.47,0-1,0-1.42,0a25.27,25.27,0,0,1-25.24-25.24A25,25,0,0,1,501,153a23.84,23.84,0,0,1,1.35-2.13q.44-.61.9-1.2a25.23,25.23,0,1,1,21.15,40.91Z" transform="translate(-304.07 -93.58)"/><path class="cls-13" d="M524.38,190.61l-2.64,10.45a35.66,35.66,0,0,1-27.09-57.33c.27-.35.55-.7.83-1l6.85,8.21A25.22,25.22,0,0,0,523,190.65C523.43,190.65,523.91,190.63,524.38,190.61Z" transform="translate(-304.07 -93.58)"/><path class="cls-14" d="M550.14,142.35l-5.67,9.88a25.21,25.21,0,0,0-41.24-2.53q-.47.59-.9,1.2A23.84,23.84,0,0,0,501,153l-6.33-9.3.49-.62.34-.42c.11-.12.21-.24.31-.37l.32-.36.64-.72.33-.35.67-.69.34-.33.35-.34.7-.65.37-.32c.6-.53,1.22-1,1.86-1.52l0,0c.75-.57,1.53-1.11,2.32-1.62l.84-.53.42-.25.42-.24c.17-.1.34-.2.52-.29l.33-.18c.27-.15.55-.29.83-.42l.08-.05.39-.18c.14-.07.29-.15.44-.21l.44-.2.44-.2c.45-.2.9-.38,1.36-.55s.92-.35,1.38-.5.94-.31,1.41-.44l.36-.11q.78-.21,1.56-.39l.48-.11.52-.11.43-.08.31-.06.34-.06.37-.06.54-.08.45-.06.48-.06.38,0,.52-.05.35,0c.59-.05,1.19-.08,1.78-.1H523A35.57,35.57,0,0,1,550.14,142.35Z" transform="translate(-304.07 -93.58)"/><ellipse class="cls-1" cx="318.24" cy="341.95" rx="74.38" ry="6.57"/><path class="cls-5" d="M595.52,174.93c-3.74-1.29-.18-16.82,1.17-19.12,3.84-6.55-1-16-1-16,3-.88,10.65,3.76,12.33,13.26.63,3.57.23,8.78-.78,14.11C603.08,166.14,599.72,175.75,595.52,174.93Z" transform="translate(-304.07 -93.58)"/><path class="cls-2" d="M605.75,158.83a9.38,9.38,0,0,0-9.53,9.21s0,.06,0,.1l0,.13,0,.27-.11.55-.23,1.11c-.15.75-.32,1.5-.49,2.26q-.51,2.25-1.08,4.5c-.77,3-1.62,5.93-2.57,8.78a64.57,64.57,0,0,1-3.21,8,27.08,27.08,0,0,1-1.81,3.17c-.3.43-.59.8-.81,1.06s-.38.39-.33.41h0a0,0,0,0,1,0,0s0,0,0,0h0l0,0-.09,0a2.33,2.33,0,0,1-.5.2,10.09,10.09,0,0,1-1.54.39,30.52,30.52,0,0,1-4,.43c-1.43.08-2.92.09-4.43.06l-.55,0v13.3c1.61.19,3.24.33,4.93.41a44.56,44.56,0,0,0,5.75-.07,28.16,28.16,0,0,0,3.27-.46,17.21,17.21,0,0,0,1.83-.48l.49-.16.24-.08.12,0,.14-.05.6-.26.3-.13.27-.13a17.1,17.1,0,0,0,3.6-2.45,23.65,23.65,0,0,0,2.5-2.52,40.83,40.83,0,0,0,3.59-4.94,80,80,0,0,0,5-9.67c1.43-3.21,2.69-6.42,3.87-9.65q.87-2.41,1.68-4.86c.26-.81.53-1.63.79-2.45l.38-1.25L614,173l.2-.69.44-1.53a9.85,9.85,0,0,0,.35-2.39A9.37,9.37,0,0,0,605.75,158.83Z" transform="translate(-304.07 -93.58)"/><path class="cls-5" d="M649.36,263.7l5.56,71.84s8.87,9.89,14.29,31C672.16,378,681,403.12,681,403.12l-10.87,4.26S640,352.17,636.51,339.3s-19-67.09-19-67.09Z" transform="translate(-304.07 -93.58)"/><path class="cls-3" d="M678.84,400.92l4.73,10.14a17.17,17.17,0,0,1-8.51,5.65L670,404.52Z" transform="translate(-304.07 -93.58)"/><path class="cls-6" d="M666.7,403.48a11,11,0,0,0,3,6.06l13.69-6.42a17.3,17.3,0,0,0-2.41-6.18Z" transform="translate(-304.07 -93.58)"/><path class="cls-15" d="M660.78,437.61l16.61-.05c.3-.08.68-.42,1.49-1.25l13-13.42a1.79,1.79,0,0,0,.29-2.1c-1.5-2.72-5.24-9.37-6.9-10.93-2.09-2-3.51-.54-3.51-.54s-3.56,4.59-5.37,3.81c-2.13-.92-4-1.68-4.41,2.88a31.51,31.51,0,0,1-2.76,9.71S667,429.48,664,431C658.58,433.63,660.78,437.61,660.78,437.61Z" transform="translate(-304.07 -93.58)"/><path class="cls-8" d="M670.15,422.79a3.34,3.34,0,0,1,1.68-1.11,8.67,8.67,0,0,1,4.1.21.59.59,0,0,0,.47-.05.66.66,0,0,0,.33-.38.65.65,0,0,0-.44-.81,10,10,0,0,0-4.84-.2,4,4,0,0,0-.86.35C670,421.51,669.56,422.22,670.15,422.79Z" transform="translate(-304.07 -93.58)"/><path class="cls-8" d="M670.84,419.6A3.45,3.45,0,0,1,672,419a8.66,8.66,0,0,1,4.1.21.62.62,0,0,0,.48-.05.6.6,0,0,0,.32-.39.64.64,0,0,0-.43-.8,10,10,0,0,0-4.85-.21l-.38.14C670.81,418.4,670.3,418.85,670.84,419.6Z" transform="translate(-304.07 -93.58)"/><path class="cls-8" d="M669.56,425.35a3.29,3.29,0,0,1,1.4-.8,8.64,8.64,0,0,1,4.1.21.66.66,0,0,0,.48-.05.6.6,0,0,0,.32-.39.64.64,0,0,0-.43-.8,10,10,0,0,0-4.85-.21,5.33,5.33,0,0,0-.6.23h0C669.18,424.18,668.93,424.8,669.56,425.35Z" transform="translate(-304.07 -93.58)"/><path class="cls-6" d="M636,266.23c0,4.31-29.79,64-28,71.94.57,17.72-12.44,77.67-14.24,76.74h-9.46l1.19-81.84,13.81-65.85S620.85,260.67,636,266.23Z" transform="translate(-304.07 -93.58)"/><path class="cls-5" d="M591.16,414a.72.72,0,0,0,.71-.6c.07-.41,7.08-41.68,9.21-51.17,2.1-9.34,2.4-26.89,2.43-28.5,3-10.61,28.22-67.07,28.47-67.64a.72.72,0,1,0-1.32-.59c-1,2.34-25.7,57.45-28.57,67.93a1.08,1.08,0,0,0,0,.19c0,.18-.26,18.86-2.39,28.29s-9.15,50.84-9.22,51.25a.71.71,0,0,0,.59.83Z" transform="translate(-304.07 -93.58)"/><path class="cls-3" d="M593,414l-.33,11.18a17.16,17.16,0,0,1-10.14,1.23l1-13.17Z" transform="translate(-304.07 -93.58)"/><path class="cls-9" d="M581,410.84a11,11,0,0,0,0,6.78l15.11.42a17.2,17.2,0,0,0,.63-6.61Z" transform="translate(-304.07 -93.58)"/><path class="cls-15" d="M558.46,437.39c.82,1.74,36.74-.13,36.74-.13s1.14-10.66,0-13.95-6.36.41-10-.42c0,0-2.15-3-3.89-2.87-.65,0-2.9,1.49-5.73,3.35l-1.42.93-1,.67-1.71,1.12-.65.41h0l-1.57,1c-3.15,2-6.13,3.62-7.85,3.92C556.8,432.24,557.64,435.64,558.46,437.39Z" transform="translate(-304.07 -93.58)"/><path class="cls-8" d="M571.49,426.09a3.3,3.3,0,0,1,2,.38,8.76,8.76,0,0,1,2.77,3,.68.68,0,0,0,.37.3.65.65,0,0,0,.51-.05.63.63,0,0,0,.25-.87,9.71,9.71,0,0,0-3.31-3.55,6,6,0,0,0-.85-.36C572.25,425.05,571.47,425.26,571.49,426.09Z" transform="translate(-304.07 -93.58)"/><path class="cls-8" d="M574.22,424.3a3.63,3.63,0,0,1,1.19.38,8.85,8.85,0,0,1,2.77,3,.61.61,0,0,0,.37.3.65.65,0,0,0,.51-.05.64.64,0,0,0,.25-.87,9.91,9.91,0,0,0-3.31-3.55l-.36-.17C575,423.42,574.36,423.38,574.22,424.3Z" transform="translate(-304.07 -93.58)"/><path class="cls-8" d="M569.27,427.5a3.33,3.33,0,0,1,1.56.41,8.83,8.83,0,0,1,2.78,3,.6.6,0,0,0,.37.31.63.63,0,0,0,.5-.05.66.66,0,0,0,.26-.88,10,10,0,0,0-3.31-3.54,6.07,6.07,0,0,0-.59-.27h0C569.82,426.4,569.21,426.66,569.27,427.5Z" transform="translate(-304.07 -93.58)"/><path class="cls-2" d="M593.8,269.6c1.44,3.68,8.5,4.94,20.35,1.09s31.13-2.18,35.21-7c2.42-2.85,3.65-10.83.6-23.17-.23-.94-.47-1.89-.7-2.84-.31-1.23-.62-2.47-.92-3.71l-.69-2.83c-.31-1.27-.61-2.52-.89-3.75-.22-1-.44-1.92-.64-2.85-.65-3-1.2-5.8-1.57-8.31a86.26,86.26,0,0,1-.3-17.47h0c.45-7.34,1.21-14.49.71-20.64h0a25.73,25.73,0,0,0-2.09-8.82c-3.09-6.6-10.11-12-15.42-15.28a19.94,19.94,0,0,0-13.87-2.76c-6.59,1.1-14.22,11-15.42,14.77-.82,2.62-1.26,4.72-1.38,11.17-.16,8.39-.3,15.86,1,24.56h0l.12.81c.91,5.86.17,15.92-1,26.53l-.12,1.08c0,.08,0,.17,0,.26l-.3,2.65L596,237c-.11,1-.22,1.94-.34,2.91-.15,1.28-.3,2.55-.45,3.8-.12,1-.23,2-.34,2.9C593.62,257.55,592.71,266.79,593.8,269.6Z" transform="translate(-304.07 -93.58)"/><path class="cls-10" d="M600,253.23a.64.64,0,0,1-.62-.5.62.62,0,0,1,.49-.73c.15,0,15.48-3.38,23.06-17.81a.63.63,0,0,1,1.11.59,36.46,36.46,0,0,1-14.93,14.89,35.4,35.4,0,0,1-9,3.55Z" transform="translate(-304.07 -93.58)"/><path class="cls-8" d="M608,171.71a2.68,2.68,0,0,1-2.54-1.94c-1.58-4,.78-12.89,4.29-16.16l.51.55c-3.27,3.05-5.57,11.64-4.1,15.34A1.93,1.93,0,0,0,608,171h0c7.72-.07,13.84-17.4,13.9-17.57l.71.24c-.26.74-6.36,18-14.6,18.08Z" transform="translate(-304.07 -93.58)"/><path class="cls-10" d="M596.78,230.46a54.16,54.16,0,0,0,7.78,4.44,4.6,4.6,0,0,0,1.69.3,12,12,0,0,0,5.16-1.56c10.14-5.52,17.56-15.52,22-22.94,5.22-8.71,8-16.5,8.42-18.72a.6.6,0,0,0-.47-.71.59.59,0,0,0-.7.47c-.45,2.15-3.14,9.76-8.28,18.35-4.36,7.28-11.64,17.1-21.55,22.49-.87.48-3.89,2-5.82,1.21a57.79,57.79,0,0,1-8.09-4.67l-.12,1.08C596.79,230.28,596.79,230.37,596.78,230.46Z" transform="translate(-304.07 -93.58)"/><path class="cls-10" d="M610.64,209a.64.64,0,0,0,.49-.23c6.93-9.08,11.11-22.72,11.16-22.86a.61.61,0,0,0-.41-.75.6.6,0,0,0-.75.4c0,.14-4.16,13.58-11,22.48a.59.59,0,0,0,.47,1Z" transform="translate(-304.07 -93.58)"/><path class="cls-3" d="M602.35,146.87s.32.67.89,1.75l.09.19,0,0c.41.77.92,1.72,1.52,2.76.22.38.45.78.69,1.18s.43.73.67,1.11a43.26,43.26,0,0,0,5.69,7.61c5.87-2.21,9.89-5.12,11.28-9,0,0-6.41-7.69-6.65-15Z" transform="translate(-304.07 -93.58)"/><path class="cls-4" d="M603.24,148.62l.09.19,0,0c.41.77.92,1.72,1.52,2.76.22.38.45.78.69,1.18s.43.73.67,1.11c1.53-2.91,1.94-7.58,2-7.68Z" transform="translate(-304.07 -93.58)"/><path class="cls-3" d="M592.81,146.54c.09.56.2,1.1.3,1.61.71,3.33,2,4.45,3.93,4.22,3.41-.42,18.21-8.85,23.86-14.65s1.29-15.6-5.28-16.92c-4.68-.93-13.41,1.75-18,3.37a7.07,7.07,0,0,0-4.55,5,34.77,34.77,0,0,0-.87,7.24h0c-.09.14-2.1,3.66-2.49,4.37s1.68,1,2.62,1.19c0,.4.06.81.1,1.21Z" transform="translate(-304.07 -93.58)"/><path class="cls-4" d="M594.12,145.6a3.63,3.63,0,0,0,2.77-1.52.36.36,0,0,0-.09-.5.37.37,0,0,0-.51.09,2.78,2.78,0,0,1-2.61,1.16.38.38,0,0,0-.42.3.36.36,0,0,0,.29.41A2.91,2.91,0,0,0,594.12,145.6Z" transform="translate(-304.07 -93.58)"/><path class="cls-4" d="M596.68,141.05c.18.8,1.6,1.15,3.16.79s2.67-1.3,2.49-2.09-1.6-1.15-3.16-.79S596.5,140.26,596.68,141.05Z" transform="translate(-304.07 -93.58)"/><path class="cls-5" d="M594.2,135.25c-.08.66.16,1.22.52,1.26s.72-.46.79-1.12-.16-1.22-.53-1.26S594.27,134.59,594.2,135.25Z" transform="translate(-304.07 -93.58)"/><path class="cls-5" d="M597.86,134.13a.59.59,0,0,0,.25-.07.57.57,0,0,0,.23-.77,4,4,0,0,0-4.48-2,.57.57,0,0,0-.41.7.59.59,0,0,0,.71.4,2.85,2.85,0,0,1,3.17,1.45A.58.58,0,0,0,597.86,134.13Z" transform="translate(-304.07 -93.58)"/><path class="cls-4" d="M606.81,138.06a.4.4,0,0,0,.37-.34,6.69,6.69,0,0,1,2.39-4.12.4.4,0,0,0,.1-.55.41.41,0,0,0-.56-.1,7.39,7.39,0,0,0-2.72,4.65.4.4,0,0,0,.34.45Z" transform="translate(-304.07 -93.58)"/><path class="cls-4" d="M609.81,136a.41.41,0,0,0,.34-.23.4.4,0,0,0-.18-.53,4.39,4.39,0,0,0-2.41-.43.39.39,0,0,0-.3.47.4.4,0,0,0,.47.31,3.58,3.58,0,0,1,1.89.37A.43.43,0,0,0,609.81,136Z" transform="translate(-304.07 -93.58)"/><path class="cls-5" d="M593.43,127.93c2.26,2.23,7,5.13,11.1,5.12,0,0,3.07-4.94,7.08-1.83s-1.19,10.43-5.49,9.45a10.54,10.54,0,0,0,2.34,9.39c10.16,5.29,22.65-.58,22.65-.58a52.73,52.73,0,0,0-.67-16.15h0c-1.08-9.87-4.55-23.69-23.87-18.38-9.63,2.65-12.47,5.77-13.31,8.4C592.53,125.6,592.68,127.19,593.43,127.93Z" transform="translate(-304.07 -93.58)"/><path class="cls-5" d="M606.12,140.67s-2.56,7.67,2.91,11.73,9.57,6,8.39,13.54c-1.84,11.82,14.9,23.95,25.41,13.46,8.93-8.91-7-14.78-7.08-27.13s-7.32-28.36-7.32-28.36S622.58,140.59,606.12,140.67Z" transform="translate(-304.07 -93.58)"/><path class="cls-8" d="M605.8,140.4a1.28,1.28,0,1,0,1.27-1.27A1.27,1.27,0,0,0,605.8,140.4Z" transform="translate(-304.07 -93.58)"/><path class="cls-2" d="M554.66,196a5.29,5.29,0,0,1,7.08-2.43h0c8.11,4,16.35,7.8,24.61,11.57q6.21,2.82,12.43,5.6c2.11.94,4.22,1.89,6.34,2.82l.19.09.64.28.63-.54.47-.42a36.92,36.92,0,0,0,3.66-3.9,54.44,54.44,0,0,0,6.53-10.46A83.5,83.5,0,0,0,622,186.5c.45-1.45.86-2.92,1.24-4.4,3.79,3.35,8.92,4.94,14.46,1.87a10.84,10.84,0,0,0,3.52-2.88h1c-.22,1.08-.45,2.14-.7,3.2-.59,2.55-1.28,5.06-2,7.57a102.34,102.34,0,0,1-5.77,14.79,72.84,72.84,0,0,1-8.79,14c-.91,1.1-1.85,2.18-2.85,3.23s-2,2.08-3.15,3.06-2.26,1.92-3.47,2.82-2.49,1.72-3.8,2.5l-.8.43a8,8,0,0,1-8.07-.22c-3.92-2.42-7.79-4.84-11.67-7.28s-7.75-4.9-11.61-7.36c-7.72-5-15.41-9.94-23-15.12A5.29,5.29,0,0,1,554.66,196Z" transform="translate(-304.07 -93.58)"/><path class="cls-3" d="M557.25,202.37c1.71-.32,6.24-4.6,4.52-10-1.59-5-1-6.51-2.68-10-1.44-3-1.82-.17-2.12,2.53s.22,3.83-2.06,3-9.67-8-12.32-8.45,6.73,8.58,6.73,8.58-9.14-6.31-10.46-5.51c-1.58,1,7.8,8.26,7.8,8.26s-8.53-4.24-8.94-3.63c-.78,1.18,7,6.75,7,6.75s-6-2.62-6-1.44S549.12,201.37,557.25,202.37Z" transform="translate(-304.07 -93.58)"/><path class="cls-10" d="M605.14,213.59l.3.34s0,0,0,0a17.8,17.8,0,0,1,3.19,5.73.6.6,0,0,0,.58.42l.17,0a.59.59,0,0,0,.4-.75,19.3,19.3,0,0,0-2.59-5.11q-.3-.4-.63-.81L606,214l-.64-.28Z" transform="translate(-304.07 -93.58)"/><path class="cls-10" d="M605.33,213.68a.8.8,0,0,0,.11.25s0,0,0,0a.59.59,0,0,0,.49.19,5.48,5.48,0,0,1,1.26.07,17.33,17.33,0,0,1,4.15,1.43.52.52,0,0,0,.27.07.61.61,0,0,0,.54-.33.6.6,0,0,0-.26-.8,16.85,16.85,0,0,0-4.86-1.6l-.47.42L606,214Z" transform="translate(-304.07 -93.58)"/></g></svg>